<?xml version="1.0" standalone="no"?>
<!DOCTYPE svg PUBLIC "-//W3C//DTD SVG 20010904//EN"
 "http://www.w3.org/TR/2001/REC-SVG-20010904/DTD/svg10.dtd">
<svg version="1.0" xmlns="http://www.w3.org/2000/svg" height="24px" width="24px" viewBox="0 0 489.4 489.4" style="enable-background:new 0 0 489.4 489.4;" xml:space="preserve"
 preserveAspectRatio="xMidYMid meet">

<g transform="translate(0.000000,512.000000) scale(0.100000,-0.100000)"
fill="#000000" stroke="none">
<path d="M1273 4949 c-202 -35 -353 -218 -353 -429 l0 -67 -118 -6 c-127 -7
-176 -18 -263 -61 -117 -58 -217 -175 -262 -306 l-22 -65 -3 -1670 c-2 -1116
1 -1693 8 -1740 22 -152 135 -312 268 -383 124 -66 -11 -62 2028 -62 2012 0
1891 -3 2013 56 74 36 189 151 225 225 59 122 56 15 56 1859 0 1484 -2 1702
-15 1753 -46 176 -186 318 -365 371 -30 9 -106 19 -167 23 l-113 6 0 47 c0
282 -232 492 -495 450 -214 -34 -365 -213 -365 -431 l0 -69 -775 0 -775 0 0
49 c0 111 -40 227 -105 307 -89 109 -256 169 -402 143z m167 -258 c19 -10 49
-37 65 -60 30 -42 30 -44 33 -200 4 -174 -4 -223 -45 -271 -87 -104 -254 -87
-312 32 -19 40 -21 61 -21 209 0 138 3 170 19 204 47 103 158 139 261 86z
m2413 1 c18 -10 45 -37 62 -61 30 -42 30 -44 33 -200 4 -174 -4 -223 -45 -271
-88 -105 -254 -87 -312 34 -21 42 -22 57 -19 225 l3 179 31 39 c45 56 107 86
167 79 27 -3 63 -14 80 -24z m-2909 -554 c65 -185 232 -296 430 -286 103 5
192 44 271 119 56 53 109 143 121 205 l6 34 780 -2 780 -3 19 -59 c74 -239
356 -364 582 -258 118 55 209 160 237 275 l12 47 68 0 c177 0 280 -54 336
-174 24 -51 24 -53 24 -413 l0 -363 -2061 0 -2060 0 3 363 c3 343 4 364 24
407 28 61 67 105 119 136 55 32 110 43 208 41 l78 -2 23 -67z m3664 -2330 c-3
-1161 -4 -1215 -22 -1248 -26 -49 -84 -108 -131 -133 l-40 -22 -1850 -3 -1850
-2 -62 30 c-65 32 -110 79 -141 147 -16 35 -17 124 -20 1241 l-2 1202 2060 0
2060 0 -2 -1212z"/>
<path d="M3131 2240 c-33 -27 -62 -53 -65 -58 -3 -5 -162 -162 -354 -350
l-348 -341 -216 208 c-225 218 -238 226 -304 209 -67 -17 -103 -102 -71 -165
9 -16 132 -142 274 -280 278 -269 290 -277 357 -249 23 10 192 168 471 442
240 234 444 438 455 452 13 16 20 40 20 69 0 38 -5 50 -34 79 -29 29 -41 34
-79 34 -40 0 -53 -6 -106 -50z"/>
</g>
</svg>
